# xmcd CD database file
#
# Track frame offsets:
#	150
#	22855
#	42047
#
# Disc length: 818 seconds
#
# Revision: 0
# Processed by: cddbd v1.5PL3 Copyright (c) Steve Scherf et al.
# Submitted via: CDex 1.50beta8
#
DISCID=14033003
DTITLE=KinKiKids - 永遠のBLOODS
DYEAR=1900
DGENRE=JPop
TTITLE0=永遠のBLOODS
TTITLE1=Funky Party
TTITLE2=その花を見るな
EXTD=
EXTT0=
EXTT1=
EXTT2=
PLAYORDER=
